<svg t="1599984119382" class="icon" viewBox="0 0 1024 1024" version="1.1" xmlns="http://www.w3.org/2000/svg" p-id="1589" width="87" height="87"><path d="M981.333 853.333h-938.667c-23.573 0-42.667-19.093-42.667-42.667v-597.333c0-23.573 19.093-42.667 42.667-42.667s42.667 19.093 42.667 42.667v554.667h896c23.573 0 42.667 19.093 42.667 42.667s-19.093 42.667-42.667 42.667zM961.429 355.861l-229.035 229.035c-16.32 16.32-42.795 16.32-59.115 0-2.027-2.027-3.051-4.587-4.587-6.912l-199.36-199.36-206.272 206.272c-16.32 16.32-42.795 16.32-59.115 0s-16.32-42.773 0-59.093l231.893-231.893c1.067-1.365 1.579-3.008 2.816-4.267 16.725-16.704 43.819-16.704 60.544 0 0.533 0.555 0.704 1.28 1.216 1.856l203.584 203.584 201.173-201.173c1.067-1.365 1.579-3.008 2.816-4.267 16.725-16.704 43.819-16.704 60.544 0 16.704 16.725 16.704 43.819 0 60.523-2.197 2.197-4.587 4.075-7.104 5.696z" p-id="1590"></path></svg>