<svg t="1599924652856" class="icon" viewBox="0 0 1024 1024" version="1.1" xmlns="http://www.w3.org/2000/svg" p-id="2269" width="87" height="87"><path d="M783.123 68.347h-542.243c-95.14 0-172.532 77.393-172.532 172.532v542.243c0 95.115 77.393 172.532 172.532 172.532h542.243c95.115 0 172.532-77.418 172.532-172.532v-542.243c0-95.14-77.418-172.532-172.532-172.532zM906.358 783.123c0 67.953-55.285 123.238-123.238 123.238h-542.243c-67.953 0-123.238-55.285-123.238-123.238v-542.243c0-67.953 55.285-123.238 123.238-123.238h542.243c67.953 0 123.238 55.285 123.238 123.238v542.243z" p-id="2270"></path><path d="M290.172 438.058h98.589c27.186 0 49.294-22.11 49.294-49.294v-98.589c0-27.186-22.109-49.294-49.294-49.294h-98.589c-27.186 0-49.294 22.11-49.294 49.294v98.589c0 27.186 22.11 49.294 49.294 49.294zM290.172 290.172h98.589l0.026 98.589h-98.614v-98.589z" p-id="2271"></path><path d="M758.474 240.877h-221.828c-13.605 0-24.647 11.042-24.647 24.647s11.042 24.647 24.647 24.647h221.828c13.631 0 24.647-11.042 24.647-24.647s-11.016-24.647-24.647-24.647z" p-id="2272"></path><path d="M758.474 388.762h-221.828c-13.605 0-24.647 11.042-24.647 24.648s11.042 24.648 24.647 24.648h221.828c13.631 0 24.647-11.042 24.647-24.648s-11.016-24.648-24.647-24.648z" p-id="2273"></path><path d="M758.474 536.647h-492.948c-13.606 0-24.647 11.017-24.647 24.647s11.042 24.647 24.647 24.647h492.948c13.631 0 24.647-11.016 24.647-24.647s-11.016-24.647-24.647-24.647z" p-id="2274"></path><path d="M512 684.532h-246.474c-13.606 0-24.647 11.016-24.647 24.647s11.042 24.647 24.647 24.647h246.474c13.605 0 24.647-11.016 24.647-24.647s-11.042-24.647-24.647-24.647z" p-id="2275"></path></svg>