<svg t="1600412797512" class="icon" viewBox="0 0 1024 1024" version="1.1" xmlns="http://www.w3.org/2000/svg" p-id="1401" width="200" height="200"><path d="M916.86684445 373.16076999l-69.90506667 24.75804444a97.09036999 97.09036999 0 0 0-48.54518557 37.86524445l-103.40124444 155.34459335a145.63555555 145.63555555 0 0 0-25.24349554 82.0413622v72.33232669a48.54518557 48.54518557 0 0 1-14.07810446 34.4670811l-20.38897778 19.90352555a48.54518557 48.54518557 0 0 1-68.44871111 0l-342.72900665-343.21445888a48.54518557 48.54518557 0 0 1 0-68.44871111L244.03057778 366.36444445a48.54518557 48.54518557 0 0 1 34.4670811-14.07810333h72.33232669a145.63555555 145.63555555 0 0 0 82.0413622-25.24349667l155.34459335-103.40124445a97.09036999 97.09036999 0 0 0 37.86524445-48.54518557l24.75804444-69.90506666a48.54518557 48.54518557 0 0 1 80.09955556-17.96171776l203.88977777 203.88977778a48.54518557 48.54518557 0 0 1-17.96171889 82.0413622z m-772.35389668 402.9250378a145.63555555 145.63555555 0 0 0-32.52527332 48.54518442L75.09333333 913.4686811a24.27259221 24.27259221 0 0 0 5.33997 26.2144 24.27259221 24.27259221 0 0 0 26.2144 5.33997113l87.86678556-34.95253333a145.63555555 145.63555555 0 0 0 48.54518556-32.52527445l141.26648889-141.2664889-98.06127445-101.94488888z" p-id="1402"></path></svg>