<svg t="1599909803579" class="icon" viewBox="0 0 1024 1024" version="1.1" xmlns="http://www.w3.org/2000/svg" p-id="1987" width="87" height="87"><path d="M580.95 980.615l16.846-97.94-71.104-69.341c-24.681-23.898-33.495-56.218-23.702-86.187s35.846-50.733 69.732-55.63l85.991-12.536c-3.722-2.547-7.052-5.093-10.185-7.837-10.773-9.402-18.413-19.392-23.114-29.578s-7.444-20.763-8.032-30.949c-0.588-10.381 0-20.568 1.959-30.557 1.371-8.032 3.526-14.887 6.073-20.568 2.547-5.681 5.877-10.381 9.989-14.495 4.114-3.918 8.619-7.837 14.103-11.361 5.485-3.722 10.969-8.032 17.042-13.515 5.289-4.702 9.989-11.165 14.495-19.588 4.114-8.227 8.032-16.846 11.361-25.465 3.33-9.794 6.464-20.372 9.011-30.949 6.66-1.959 12.928-5.485 19-10.969 5.289-4.7 9.989-11.165 14.495-19.588 4.114-8.423 7.444-19.392 9.402-33.495 1.371-10.773 1.175-19.588-0.392-27.032-1.568-7.444-3.918-13.32-6.464-18.021-2.547-5.485-6.269-9.598-10.969-12.144 0.588-26.64-0.979-53.475-5.093-80.115-3.134-22.722-9.011-46.815-17.433-72.476s-20.959-49.166-37.609-70.517c-7.444-9.402-17.042-18.61-29.186-27.62-11.752-9.011-25.661-17.041-40.939-24.485-15.473-7.444-31.928-13.32-49.558-18.021s-36.434-7.052-55.63-7.052c-15.473 0-31.341 1.568-47.598 4.114-16.454 2.938-32.517 7.444-48.578 14.103-16.062 6.66-31.928 15.866-47.598 27.62s-29.773 26.64-42.506 44.661c-13.32 19.196-23.506 40.939-30.557 65.033-7.052 24.094-11.948 46.815-14.495 68.166-3.526 25.465-4.702 50.929-4.114 76.198-5.485 6.856-9.598 13.711-12.144 21.155-2.742 6.66-4.505 14.495-5.485 23.506-1.175 9.011 0 19.392 3.33 30.557 3.526 11.361 7.444 19.98 12.144 26.052 4.702 6.073 9.011 10.773 13.124 14.103 4.702 3.526 9.402 5.681 14.103 7.052 3.33 10.577 6.66 20.959 9.989 30.949 3.33 8.619 6.856 17.041 10.969 25.465 4.114 8.423 8.619 14.887 14.103 19.588 11.557 9.402 21.547 18.413 30.557 27.032 9.011 8.619 14.103 20.959 15.475 37.021 0.588 10.185 0.979 19.588 0.979 28.206 0 8.815-1.568 17.041-4.505 25.073-2.938 8.032-8.423 16.062-16.062 24.094-7.64 8.032-18.413 16.454-32.515 25.073-17.237 11.361-37.413 19.98-60.527 26.052-23.114 6.073-123.796 40.743-145.539 48.186-21.547 7.248-40.547 17.237-56.609 29.969-15.866 12.536-25.857 31.341-29.969 56.022-6.66 42.702-8.032 49.556-4.505 76.981 3.526 27.228 9.011 43.486 16.454 48.97 6.073 4.505 23.31 9.989 52.104 16.454 28.794 6.464 209.788 40.547 419.968 40.547 27.424 0 53.867-0.588 79.332-1.763-1.175-9.207-0.979-18.61 0.588-28.206z" p-id="1988"></path><path d="M996.608 739.29l-104.796-15.278c-16.062-2.351-35.062-16.062-42.31-30.753l-46.815-95.002c-3.526-7.248-8.423-10.969-13.124-10.969s-9.402 3.722-13.124 10.969l-46.815 95.002c-7.248 14.495-26.248 28.402-42.31 30.753l-104.796 15.278c-16.062 2.351-19.784 13.515-8.032 24.876l75.806 73.847c11.557 11.361 18.805 33.691 16.062 49.753l-17.825 104.404c-1.959 11.557 2.547 18.413 10.577 18.413 3.134 0 6.66-0.979 10.577-3.134l93.631-49.361c7.248-3.722 16.65-5.681 26.052-5.681s19 1.959 26.052 5.681l93.631 49.361c3.918 2.155 7.64 3.134 10.577 3.134 8.032 0 12.536-6.856 10.577-18.413l-17.825-104.404c-2.742-16.062 4.505-38.393 16.062-49.753l75.806-73.847c11.948-11.361 8.423-22.526-7.64-24.876z" p-id="1989"></path></svg>